<svg width="32" height="32" viewBox="0 0 32 32" fill="none" xmlns="http://www.w3.org/2000/svg">
<path d="M1.25 29.1933C19.7632 24.9822 23.9707 21.0719 27.3368 4.82894V29.1933H1.25Z" fill="#FF8989" fill-opacity="0.51"/>
<path d="M5.90789 29.1933C5.90789 30.2157 5.07907 31.0445 4.05667 31.0445C3.03428 31.0445 2.20546 30.2157 2.20546 29.1933C2.20546 28.1709 3.03428 27.3421 4.05667 27.3421C5.07907 27.3421 5.90789 28.1709 5.90789 29.1933Z" fill="#FD4F4F"/>
<path d="M5.90789 29.1933C5.90789 28.1709 5.07908 27.3421 4.05668 27.3421C3.03428 27.3421 2.20547 28.1709 2.20547 29.1933C2.20547 30.2157 3.03428 31.0445 4.05668 31.0445C5.07908 31.0445 5.90789 30.2157 5.90789 29.1933ZM6.86336 29.1933C6.86336 30.7434 5.60677 32 4.05668 32C2.50659 32 1.25 30.7434 1.25 29.1933C1.25 27.6432 2.50659 26.3866 4.05668 26.3866C5.60677 26.3866 6.86336 27.6432 6.86336 29.1933Z" fill="#FD4F4F"/>
<path d="M29.7945 4.82894C29.7945 5.78537 29.0192 6.56072 28.0627 6.56072C27.1063 6.56072 26.331 5.78537 26.331 4.82894C26.331 3.8725 27.1063 3.09715 28.0627 3.09715C29.0192 3.09715 29.7945 3.8725 29.7945 4.82894Z" fill="#FD4F4F"/>
<path d="M29.7945 4.82895C29.7945 3.87252 29.0192 3.09717 28.0628 3.09717C27.1063 3.09717 26.331 3.87252 26.331 4.82895C26.331 5.78539 27.1063 6.56074 28.0628 6.56074C29.0192 6.56074 29.7945 5.78539 29.7945 4.82895ZM30.75 4.82895C30.75 6.31308 29.5469 7.5162 28.0628 7.5162C26.5786 7.5162 25.3755 6.31308 25.3755 4.82895C25.3755 3.34483 26.5786 2.14171 28.0628 2.14171C29.5469 2.14171 30.75 3.34483 30.75 4.82895Z" fill="#FD4F4F"/>
<path d="M28.0627 6.56085C28.0627 6.56085 25.153 24.6261 4.78512 28.465" stroke="#FD4F4F" stroke-width="2" stroke-dasharray="2 2"/>
</svg>
